<svg width="35" height="35" viewBox="0 0 35 35" fill="none" xmlns="http://www.w3.org/2000/svg">
<path d="M18.9583 4.37499C18.9583 3.56958 18.3054 2.91666 17.5 2.91666C16.6945 2.91666 16.0416 3.56958 16.0416 4.37499V16.0417H4.37496C3.56955 16.0417 2.91663 16.6946 2.91663 17.5C2.91663 18.3054 3.56955 18.9583 4.37496 18.9583H16.0416V30.625C16.0416 31.4304 16.6945 32.0833 17.5 32.0833C18.3054 32.0833 18.9583 31.4304 18.9583 30.625V18.9583H30.625C31.4304 18.9583 32.0833 18.3054 32.0833 17.5C32.0833 16.6946 31.4304 16.0417 30.625 16.0417H18.9583V4.37499Z" fill="#101615"/>
</svg>
